<?xml version="1.0" encoding="UTF-8"?>
<svg id="Layer_2" data-name="Layer 2" xmlns="http://www.w3.org/2000/svg" viewBox="0 0 996.93 289.56">
  <defs>
    <style>
      .cls-1 {
        fill: #1b4588;
      }

      .cls-2 {
        fill: #059b54;
      }
    </style>
  </defs>
  <g id="Isolation_Mode" data-name="Isolation Mode">
    <g>
      <g>
        <g>
          <path class="cls-1" d="M981.85,105.43c0,9.46-1.16,17.95-3.49,24.51-2.33,6.56-5.74,11.88-10.22,15.87-4.48,3.99-10.01,6.9-16.58,8.56-6.57,1.66-14.09,2.53-22.56,2.53-9.14,0-17.08-1.06-23.81-3.23-6.73-2.15-12.24-5.38-16.47-9.71-4.24-4.32-7.39-9.72-9.48-16.2-2.07-6.48-3.14-13.96-3.14-22.43v-34.11h-21.83V31.2h21.83V.64h45.12v32.43c-21.41,10.45-23.72,30.08-24.06,38.6,0,.05.04,4.66.04,4.66h24.02v26.77c0,2.16.11,4.07.52,5.73.42,1.66,1.04,3,1.88,4,.83.99,1.82,1.74,3.07,2.24,1.25.5,2.67.76,4.33.76,1.83,0,3.4-.14,4.73-.48,1.32-.33,2.45-.84,3.36-1.59.91-.74,1.62-2.05,2.12-3.38.5-1.33.75-3.49.75-4.94h39.88Z"/>
          <path class="cls-1" d="M149.56.64l-69.34,109.58-.02.04c-17.69,8.02-30.16,25-30.82,46.1H0L72.76,41.39H8.17L33.66.64h115.9Z"/>
          <polygon class="cls-1" points="603.42 95.85 571.68 .96 508.38 .96 508.38 156.7 553.7 156.7 553.7 54.1 585.44 156.7 621.85 156.7 652.93 54.1 652.93 156.7 697.9 156.7 697.9 .96 634.51 .96 603.42 95.85"/>
          <path class="cls-2" d="M56.55,156.82h43.66c24.97,0,45.21-20.24,45.21-45.21h-43.66c-24.98,0-45.21,20.24-45.21,45.21h0Z"/>
          <rect class="cls-1" x="158.14" y="70.09" width="44.87" height="86.62"/>
          <path class="cls-2" d="M903.61,71.63h38.55c22.05,0,39.92-17.87,39.92-39.92h-38.55c-22.04,0-39.92,17.87-39.92,39.92h0Z"/>
          <path class="cls-1" d="M841.56,55.76c-2.75-7.44-6.84-13.22-12.42-17.35-5.58-4.13-12.5-6.91-20.82-8.37-8.32-1.45-18.12-2.18-29.44-2.18-9.66,0-18.38.77-26.21,2.31-7.82,1.54-14.47,4.12-19.97,7.77-5.5,3.64-9.7,7.94-12.61,13.68-2.91,5.74-4.36,13.8-4.36,21.08h39.95c0-2.18.75-3.93,2.25-5.31,1.5-1.37,3.36-2.23,5.61-2.96s4.66-1.07,7.25-1.24c2.57-.16,4.95-.19,7.11-.19,2.33,0,4.87.19,7.62.51,2.74.33,5.24.99,7.49,1.95,2.25.97,4.12,2.35,5.62,4.13,1.49,1.78,2.24,4.2,2.25,7.25l-44.45,3.68c-6.66.48-12.9,1.46-18.73,2.91-5.83,1.45-10.86,3.56-15.11,6.31-4.25,2.75-7.61,6.31-10.11,10.67-2.5,4.37-3.75,9.87-3.75,16.5,0,7.93,1.41,14.44,4.25,19.53,2.83,5.09,6.66,9.14,11.48,12.13,4.83,3,10.4,5.06,16.74,6.19,6.32,1.13,12.98,1.7,19.97,1.7,9.98,0,17.89-1.17,23.72-3.52,5.82-2.34,10.29-5.58,13.12-9.71,1.18-1.73,2.4-3.6,3.14-5.59v18.74h44.38v-71.73c0-11.81-1.23-21.43-3.98-28.87ZM798.64,115.07c-1.58,1.38-3.86,2.51-6.68,3.4-2.84.89-6.24,1.58-10.15,2.06-3.91.49-8.13.73-12.62.73-1.5,0-3.1-.04-4.76-.12-1.66-.08-3.21-.32-4.62-.73-1.41-.4-2.58-.97-3.5-1.7-.92-.73-1.37-1.65-1.37-2.79,0-1.29.21-2.34.62-3.15.41-.81,1.08-1.46,2-1.94.92-.49,2.16-.89,3.74-1.21,1.58-.32,3.76-.56,6.26-.73l33.6-2.75v4.2c0,1.78-.93,3.36-2.52,4.73Z"/>
          <path class="cls-1" d="M300.92,27.85c-27.24,0-34.78,15.38-34.78,15.4v-11.7h-41.57v175.18h41.57v-69.26s5.3,15.4,34.76,15.4,52.59-27.99,52.59-62.51-23.53-62.51-52.57-62.51ZM286.97,115.81c-10.21,0-20.47-4.88-20.47-24.95s10.26-24.95,20.47-24.95,20.67,2.91,20.67,24.95c0,19.89-10.48,24.95-20.67,24.95Z"/>
          <path class="cls-1" d="M443.13,27.85c-27.23,0-34.47,15.38-34.47,15.4v-11.7h-44.54v175.18h44.54v-69.26s4.98,15.4,34.45,15.4,52.59-27.99,52.59-62.51-23.53-62.51-52.57-62.51ZM428.86,115.81c-10.2,0-20.47-4.88-20.47-24.95s10.26-24.95,20.47-24.95,20.67,2.91,20.67,24.95c0,19.89-10.47,24.95-20.67,24.95Z"/>
          <path class="cls-1" d="M208.3,28.58c0,15.31-12.42,27.72-27.73,27.72s-27.72-12.41-27.72-27.72S165.27.86,180.57.86s27.73,12.41,27.73,27.72Z"/>
        </g>
        <g>
          <path class="cls-1" d="M11.32,275.98c1.02,4.38,4.13,6.35,9.22,6.35s7.24-2.03,7.24-5.21c0-3.62-2.09-5.14-9.59-6.86-11.93-2.79-14.86-7.17-14.86-13.08,0-7.62,5.71-12.76,16.06-12.76,11.62,0,16.26,6.22,16.89,12.64h-9.53c-.5-2.73-1.97-5.65-7.62-5.65-3.87,0-6.16,1.58-6.16,4.7s1.84,4.32,8.96,5.9c12.69,3.05,15.49,7.74,15.49,13.97,0,7.94-6.04,13.46-17.59,13.46s-17.02-5.46-18.02-13.46h9.51Z"/>
          <path class="cls-1" d="M58.63,255.92c2.98,13.2,4.57,20.69,5.2,24.82h.13c.7-3.68,1.66-8.83,5.65-24.82h8.44c3.68,16.19,4.82,20.95,5.27,24.44h.06c.7-3.36,1.71-8.25,5.52-24.44h9.02l-9.78,32.89h-9.72c-2.73-12.45-4.25-19.05-5.01-23.36h-.07c-.5,4.13-2.29,11.56-5.2,23.36h-9.78l-9.33-32.89h9.59Z"/>
          <path class="cls-1" d="M111.95,250.58v-8.12h9.15v8.12h-9.15ZM111.95,255.92h9.15v32.89h-9.15v-32.89Z"/>
          <path class="cls-1" d="M139.88,288.8v-26.03h-4.81v-6.86h4.81v-2.86c0-6.79,3.37-11.24,10.48-11.24,1.46,0,3.36.13,4.19.38v7.18c-.51-.07-1.21-.13-1.91-.13-2.67,0-3.68.95-3.68,4.51v2.16h5.72v6.86h-5.72v26.03h-9.08Z"/>
          <path class="cls-1" d="M167.82,255.92h5.09v-8.89h9.07v8.89h6.48v6.86h-6.48v16.25c0,2.47.77,3.43,3.49,3.43.51,0,1.4,0,2.04-.06v6.22c-1.77.64-4.26.64-6.1.64-6.41,0-8.5-3.43-8.5-9.21v-17.27h-5.09v-6.86Z"/>
          <path class="cls-1" d="M202.55,288.8v-11.18h9.71v11.18h-9.71Z"/>
          <path class="cls-1" d="M260.13,275.98c1.01,4.38,4.12,6.35,9.2,6.35s7.24-2.03,7.24-5.21c0-3.62-2.1-5.14-9.59-6.86-11.93-2.79-14.85-7.17-14.85-13.08,0-7.62,5.72-12.76,16.07-12.76,11.61,0,16.25,6.22,16.88,12.64h-9.52c-.51-2.73-1.97-5.65-7.61-5.65-3.87,0-6.16,1.58-6.16,4.7s1.84,4.32,8.95,5.9c12.7,3.05,15.49,7.74,15.49,13.97,0,7.94-6.04,13.46-17.59,13.46s-17.01-5.46-18.02-13.46h9.52Z"/>
          <path class="cls-1" d="M301.21,264.42c0-2.86,0-5.65-.06-8.51h8.69c.12.82.32,2.67.38,3.94,1.65-2.41,4.31-4.7,9.14-4.7s7.3,2.48,8.44,5.02c1.97-2.67,4.77-5.02,10.16-5.02,5.71,0,10.41,3.55,10.41,12.06v21.59h-8.88v-20.44c0-2.98-1.08-5.9-4.82-5.9s-5.34,2.54-5.34,7.56v18.79h-8.95v-20.13c0-3.37-.82-6.16-4.69-6.16s-5.46,2.29-5.46,7.94v18.35h-9.02v-24.38Z"/>
          <path class="cls-1" d="M392.31,280.29c0,3.17.26,7.74.45,8.51h-8.7c-.25-.64-.45-2.41-.45-3.24-1.2,1.84-3.43,4-9.26,4-7.94,0-11.24-5.21-11.24-10.28,0-7.49,5.97-10.99,15.62-10.99h4.69v-1.97c0-2.35-.82-4.64-5.07-4.64-3.82,0-4.7,1.59-5.08,4h-8.65c.45-5.84,4.07-10.54,14.11-10.54,8.75.06,13.58,3.49,13.58,11.37v13.78ZM383.43,273.82h-3.68c-5.52,0-7.56,1.71-7.56,4.89,0,2.35,1.46,4.38,4.76,4.38,5.78,0,6.48-4.06,6.48-8.38v-.89Z"/>
          <path class="cls-1" d="M409.39,264.87c0-3.3,0-6.16-.06-8.95h8.95c.13.76.25,4,.25,5.78,1.47-3.74,4.95-6.47,10.54-6.54v8.7c-6.6-.19-10.54,1.59-10.54,10.6v14.35h-9.13v-23.93Z"/>
          <path class="cls-1" d="M442.66,255.92h5.08v-8.89h9.08v8.89h6.47v6.86h-6.47v16.25c0,2.47.76,3.43,3.49,3.43.51,0,1.4,0,2.04-.06v6.22c-1.78.64-4.26.64-6.1.64-6.4,0-8.5-3.43-8.5-9.21v-17.27h-5.08v-6.86Z"/>
          <path class="cls-1" d="M477.39,288.8v-11.18h9.71v11.18h-9.71Z"/>
          <path class="cls-2" d="M534.97,275.98c1.01,4.38,4.12,6.35,9.2,6.35s7.24-2.03,7.24-5.21c0-3.62-2.09-5.14-9.59-6.86-11.93-2.79-14.85-7.17-14.85-13.08,0-7.62,5.71-12.76,16.06-12.76,11.61,0,16.25,6.22,16.88,12.64h-9.52c-.5-2.73-1.97-5.65-7.62-5.65-3.87,0-6.15,1.58-6.15,4.7s1.84,4.32,8.95,5.9c12.7,3.05,15.5,7.74,15.5,13.97,0,7.94-6.03,13.46-17.59,13.46s-17.02-5.46-18.03-13.46h9.53Z"/>
          <path class="cls-2" d="M604.93,279.28c0,3.11,0,6.6.06,9.52h-8.9c-.12-.89-.19-2.67-.25-3.81-1.97,3.3-4.82,4.57-9.09,4.57-6.66,0-10.91-4.06-10.91-12.19v-21.46h9.07v19.62c0,3.62,1.15,6.6,5.09,6.6s5.84-2.22,5.84-8.7v-17.52h9.08v23.37Z"/>
          <path class="cls-2" d="M628.23,278.9c.7,2.67,2.86,4.13,6.22,4.13s4.57-1.2,4.57-3.24-1.4-2.92-6.1-4.07c-10.72-2.67-12.43-5.97-12.43-10.6s3.36-9.97,13.27-9.97,13.39,5.46,13.65,9.9h-8.64c-.32-1.2-1.15-3.49-5.4-3.49-2.99,0-4,1.33-4,2.79,0,1.65,1.01,2.41,6.35,3.68,10.98,2.54,12.57,6.29,12.57,11.11,0,5.46-4.19,10.41-14.16,10.41s-14.09-4.83-14.85-10.67h8.95Z"/>
          <path class="cls-2" d="M659.59,255.92h5.07v-8.89h9.09v8.89h6.47v6.86h-6.47v16.25c0,2.47.76,3.43,3.49,3.43.51,0,1.4,0,2.04-.06v6.22c-1.79.64-4.26.64-6.1.64-6.41,0-8.51-3.43-8.51-9.21v-17.27h-5.07v-6.86Z"/>
          <path class="cls-2" d="M721.62,280.29c0,3.17.26,7.74.44,8.51h-8.7c-.25-.64-.44-2.41-.44-3.24-1.21,1.84-3.43,4-9.27,4-7.94,0-11.24-5.21-11.24-10.28,0-7.49,5.97-10.99,15.61-10.99h4.7v-1.97c0-2.35-.82-4.64-5.08-4.64-3.81,0-4.7,1.59-5.07,4h-8.64c.45-5.84,4.07-10.54,14.09-10.54,8.77.06,13.59,3.49,13.59,11.37v13.78ZM712.73,273.82h-3.68c-5.52,0-7.56,1.71-7.56,4.89,0,2.35,1.46,4.38,4.77,4.38,5.78,0,6.47-4.06,6.47-8.38v-.89Z"/>
          <path class="cls-2" d="M738.69,250.58v-8.12h9.15v8.12h-9.15ZM738.69,255.92h9.15v32.89h-9.15v-32.89Z"/>
          <path class="cls-2" d="M764.92,264.23c0-2.8,0-5.84-.06-8.32h8.83c.19.89.31,3.18.38,4.19,1.08-2.03,3.75-4.95,9.52-4.95,6.6,0,10.86,4.51,10.86,12.76v20.89h-9.08v-19.87c0-3.74-1.21-6.41-5.27-6.41s-6.03,2.16-6.03,8v18.29h-9.14v-24.57Z"/>
          <path class="cls-2" d="M838.31,280.29c0,3.17.25,7.74.44,8.51h-8.7c-.26-.64-.45-2.41-.45-3.24-1.2,1.84-3.42,4-9.27,4-7.93,0-11.23-5.21-11.23-10.28,0-7.49,5.97-10.99,15.62-10.99h4.7v-1.97c0-2.35-.83-4.64-5.07-4.64-3.82,0-4.7,1.59-5.09,4h-8.64c.45-5.84,4.06-10.54,14.1-10.54,8.76.06,13.59,3.49,13.59,11.37v13.78ZM829.42,273.82h-3.68c-5.53,0-7.55,1.71-7.55,4.89,0,2.35,1.46,4.38,4.76,4.38,5.77,0,6.47-4.06,6.47-8.38v-.89Z"/>
          <path class="cls-2" d="M855.39,242.46h9.15v16.95c1.33-2.09,4.06-4.25,9.39-4.25,8.96,0,13.4,7.43,13.4,16.64s-4.82,17.77-14.28,17.77c-4.89,0-7.05-1.46-8.64-3.87,0,1.08-.18,2.29-.38,3.11h-8.7c.06-3.56.06-7.18.06-10.73v-35.61ZM871.13,262.46c-5.21,0-7.05,3.36-7.05,10.09,0,5.52,1.65,9.78,6.92,9.78,4.63,0,7.12-4.12,7.12-10.35,0-5.53-2.1-9.52-6.99-9.52Z"/>
          <path class="cls-2" d="M902.43,288.8v-46.34h9.15v46.34h-9.15Z"/>
          <path class="cls-2" d="M935.83,274.33c0,4.13,2.09,8.12,6.6,8.12,3.81,0,4.89-1.52,5.78-3.49h9.08c-1.15,4-4.76,10.6-15.05,10.6-10.86,0-15.55-8.06-15.55-16.7,0-10.35,5.27-17.71,15.87-17.71,11.24,0,15.11,8.19,15.11,16.38,0,1.14,0,1.84-.12,2.79h-21.71ZM948.52,268.74c-.06-3.81-1.58-7.05-6.03-7.05s-6.1,2.99-6.48,7.05h12.51Z"/>
          <path class="cls-2" d="M972.71,288.8v-11.18h9.71v11.18h-9.71Z"/>
        </g>
      </g>
      <polygon class="cls-1" points="978.07 .39 978.07 .43 978.05 .39 978.07 .39"/>
      <g>
        <polygon class="cls-1" points="996.93 .39 996.93 21.68 994.51 21.68 994.51 5.91 987.62 20.08 986.84 21.68 985.71 21.68 984.93 20.08 978.07 5.97 978.07 21.68 975.65 21.68 975.65 .39 978.05 .39 978.07 .43 986.28 17.3 994.5 .39 996.93 .39"/>
        <polygon class="cls-1" points="971.73 0 971.73 2.42 965.88 2.42 965.88 21.68 963.46 21.68 963.46 2.42 957.56 2.42 957.56 0 971.73 0"/>
      </g>
    </g>
  </g>
</svg>